# xmcd CD database file generated by OrangeCD 5.2
#
# Track frame offsets:
#	150
#	9042
#	17580
#	27732
#	41390
#	54935
#	69770
#	79577
#	95722
#	111402
#	131187
#	145100
#	156385
#	169350
#	185360
#	204562
#	223070
#	236110
#	252605
#	266685
#
# Disc length: 3819 seconds
#
# Revision: 1
# Processed by: cddbd v1.5.1PL2 Copyright (c) Steve Scherf et al.
# Submitted via: OrangeCD 5.2
#
DISCID=200ee914
DTITLE=New Jordal Swingers - NJS Beste - 20 Hits på 20 år
DYEAR=1993
DGENRE=Country
TTITLE0=Nut Rocker
TTITLE1=Nå må 'ru slutt' opp med og se på meg sånn
TTITLE2=Ælve-Rock (Red River Rock)
TTITLE3=Sea Of Heartbreak
TTITLE4=Buona Sera
TTITLE5=Railroad Man
TTITLE6=Winter Paradise
TTITLE7=Free And Easy (Spillemann)
TTITLE8=Turn On The Music
TTITLE9=Eilas
TTITLE10=Rock Machine
TTITLE11=Helpless Girl
TTITLE12=1958
TTITLE13=Tornerose
TTITLE14=Eventyr
TTITLE15=Før lyset brenner ned
TTITLE16=Toot Toot
TTITLE17=Sammen er vi sterke
TTITLE18=God gammal rock and roll
TTITLE19=Please Come Home
EXTD=
EXTT0=
EXTT1=
EXTT2=
EXTT3=
EXTT4=
EXTT5=
EXTT6=
EXTT7=
EXTT8=
EXTT9=
EXTT10=
EXTT11=
EXTT12=
EXTT13=
EXTT14=
EXTT15=
EXTT16=
EXTT17=
EXTT18=
EXTT19=
PLAYORDER=
